<svg id="SvgjsSvg1014" width="288" height="288" xmlns="http://www.w3.org/2000/svg" version="1.1" xmlns:xlink="http://www.w3.org/1999/xlink" xmlns:svgjs="http://svgjs.com/svgjs"><defs id="SvgjsDefs1015"></defs><g id="SvgjsG1016" transform="matrix(1,0,0,1,0,0)"><svg xmlns="http://www.w3.org/2000/svg" viewBox="0 0 32 32" width="288" height="288"><path d="M14 22a1 1 0 0 0-1 1v2a1 1 0 0 0 2 0V23A1 1 0 0 0 14 22zM10 22a1 1 0 0 0-1 1v2a1 1 0 0 0 2 0V23A1 1 0 0 0 10 22zM18 22a1 1 0 0 0-1 1v2a1 1 0 0 0 2 0V23A1 1 0 0 0 18 22zM22 22a1 1 0 0 0-1 1v2a1 1 0 0 0 2 0V23A1 1 0 0 0 22 22zM28 8H4a2 2 0 0 0-2 2v9a2 2 0 0 0 2 2H28a2 2 0 0 0 2-2V10A2 2 0 0 0 28 8zM25 18H7a1 1 0 0 1 0-2H25a1 1 0 0 1 0 2z" data-name="air conditioner" fill="#ffbf66" class="color000 svgShape"></path></svg></g></svg>