<svg id="SvgjsSvg1066" width="288" height="288" xmlns="http://www.w3.org/2000/svg" version="1.1" xmlns:xlink="http://www.w3.org/1999/xlink" xmlns:svgjs="http://svgjs.com/svgjs"><defs id="SvgjsDefs1067"></defs><g id="SvgjsG1068" transform="matrix(1,0,0,1,0,0)"><svg xmlns="http://www.w3.org/2000/svg" width="288" height="288" viewBox="0 0 48 48"><path d="M 24 0 A 23.999998 23.999998 0 0 0 0 24 A 23.999998 23.999998 0 0 0 24 48 A 23.999998 23.999998 0 0 0 48 24 A 23.999998 23.999998 0 0 0 24 0 z M 17.5 11 L 29.5 11 C 30.32235 11 31 11.67765 31 12.5 L 31 15.480469 C 31 15.487069 31.001953 15.493 31.001953 15.5 L 31.001953 16.5 A 0.50005 0.50005 0 0 1 31 16.550781 L 31 18.5 C 31.00013 21.17882 29.56992 23.656694 27.25 24.996094 C 26.54101 25.405434 25.77912 25.674854 25 25.833984 L 25 36.132812 L 28.248047 36.673828 A 0.50005 0.50005 0 0 0 28.25 36.673828 C 28.51374 36.717958 28.770116 36.825291 28.978516 37.019531 C 29.186906 37.213781 29.333984 37.512974 29.333984 37.833984 C 29.333984 38.471654 28.803576 39 28.166016 39 L 18.833984 39 C 18.196424 39 17.666016 38.471664 17.666016 37.833984 C 17.666016 37.518024 17.811711 37.216317 18.019531 37.023438 C 18.227351 36.830548 18.477985 36.727081 18.734375 36.675781 A 0.50005 0.50005 0 0 1 18.751953 36.673828 L 22 36.132812 L 22 25.833984 C 21.22089 25.674854 20.459 25.405434 19.75 24.996094 C 17.43008 23.656694 15.99987 21.17882 16 18.5 L 16 16.5 L 16 15.5 L 16 12.5 C 16 11.67765 16.67765 11 17.5 11 z M 17.5 12 C 17.21433 12 17 12.21433 17 12.5 L 17 14.09375 C 17.15726 14.03715 17.32432 14 17.5 14 L 29.5 14 C 29.67569 14 29.84261 14.03715 30 14.09375 L 30 12.5 C 30 12.21433 29.78567 12 29.5 12 L 17.5 12 z M 17.5 15 C 17.21449 15 17 15.21449 17 15.5 L 17 16.5 A 0.50005 0.50005 0 0 1 17 16.535156 L 17 18.5 C 16.99989 20.82314 18.2381 22.967336 20.25 24.128906 C 22.2618 25.290416 24.7382 25.290416 26.75 24.128906 C 28.7619 22.967336 30.00011 20.82314 30 18.5 L 30 15.490234 C 29.99478 15.209964 29.78202 15 29.5 15 L 17.5 15 z M 18.492188 15.992188 A 0.50005 0.50005 0 0 1 19 16.5 L 19 19 C 18.99995 20.42996 19.76163 21.749854 21 22.464844 C 21.61917 22.822304 22.30931 23 23 23 A 0.50005 0.50005 0 1 1 23 24 C 22.13683 24 21.27315 23.776418 20.5 23.330078 C 18.95365 22.437268 17.99993 20.78564 18 19 L 18 16.5 A 0.50005 0.50005 0 0 1 18.492188 15.992188 z M 22.5 16 A 0.5 0.5 0 0 1 23 16.5 A 0.5 0.5 0 0 1 22.5 17 A 0.5 0.5 0 0 1 22 16.5 A 0.5 0.5 0 0 1 22.5 16 z M 28.5 17 A 0.5 0.5 0 0 1 29 17.5 A 0.5 0.5 0 0 1 28.5 18 A 0.5 0.5 0 0 1 28 17.5 A 0.5 0.5 0 0 1 28.5 17 z M 20.5 19 A 0.5 0.5 0 0 1 21 19.5 A 0.5 0.5 0 0 1 20.5 20 A 0.5 0.5 0 0 1 20 19.5 A 0.5 0.5 0 0 1 20.5 19 z M 24.5 20 A 0.5 0.5 0 0 1 25 20.5 A 0.5 0.5 0 0 1 24.5 21 A 0.5 0.5 0 0 1 24 20.5 A 0.5 0.5 0 0 1 24.5 20 z M 26.5 22 A 0.5 0.5 0 0 1 27 22.5 A 0.5 0.5 0 0 1 26.5 23 A 0.5 0.5 0 0 1 26 22.5 A 0.5 0.5 0 0 1 26.5 22 z M 23 25.966797 L 23 36 L 24 36 L 24 25.966797 C 23.66634 25.989097 23.33367 25.989097 23 25.966797 z M 22.875 37 L 18.925781 37.658203 C 18.811181 37.682603 18.730019 37.727259 18.699219 37.755859 C 18.668019 37.785159 18.666016 37.780584 18.666016 37.833984 C 18.666016 37.934894 18.732914 38 18.833984 38 L 28.166016 38 C 28.267086 38 28.333984 37.934924 28.333984 37.833984 C 28.333984 37.785584 28.330675 37.7815 28.296875 37.75 C 28.263075 37.7185 28.184774 37.677056 28.083984 37.660156 L 24.125 37 L 22.875 37 z " fill="#ffbf66" class="color000 svgShape"></path></svg></g></svg>