<svg id="SvgjsSvg1018" width="288" height="288" xmlns="http://www.w3.org/2000/svg" version="1.1" xmlns:xlink="http://www.w3.org/1999/xlink" xmlns:svgjs="http://svgjs.com/svgjs"><defs id="SvgjsDefs1019"></defs><g id="SvgjsG1020" transform="matrix(1,0,0,1,0,0)"><svg xmlns="http://www.w3.org/2000/svg" enable-background="new 0 0 32 32" viewBox="0 0 32 32" width="288" height="288"><path d="M28,4.5H4C2.07031,4.5,0.5,6.07031,0.5,8v16c0,1.92969,1.57031,3.5,3.5,3.5h24c1.92969,0,3.5-1.57031,3.5-3.5V8C31.5,6.07031,29.92969,4.5,28,4.5z M28.5,24c0,0.27588-0.22412,0.5-0.5,0.5H4c-0.27588,0-0.5-0.22412-0.5-0.5V12.5h25V24z M28.5,9.5h-25V8c0-0.27588,0.22412-0.5,0.5-0.5h24c0.27588,0,0.5,0.22412,0.5,0.5V9.5z" fill="#ffbf66" class="color000 svgShape"></path><path d="M6.41309,23.08691h2.71436c0.82861,0,1.5-0.67139,1.5-1.5s-0.67139-1.5-1.5-1.5H6.41309c-0.82861,0-1.5,0.67139-1.5,1.5S5.58447,23.08691,6.41309,23.08691z" fill="#ffbf66" class="color000 svgShape"></path></svg></g></svg>