<svg id="SvgjsSvg1024" width="288" height="288" xmlns="http://www.w3.org/2000/svg" version="1.1" xmlns:xlink="http://www.w3.org/1999/xlink" xmlns:svgjs="http://svgjs.com/svgjs"><defs id="SvgjsDefs1025"></defs><g id="SvgjsG1026" transform="matrix(1,0,0,1,0,0)"><svg xmlns="http://www.w3.org/2000/svg" data-name="Layer 1" viewBox="0 0 64 64" width="288" height="288"><rect width="58" height="16" x="3" y="3" fill="#ffbf66" class="color5c677d svgShape"></rect><polygon fill="#7ccdf4" points="12 11 12 7 8 7 8 11 7 11 7 19 13 19 13 11 12 11" class="color7ccdf4 svgShape"></polygon><polygon fill="#e9ff70" points="22 11 22 7 18 7 18 11 17 11 17 19 23 19 23 11 22 11" class="colore9ff70 svgShape"></polygon><polygon fill="#e9ff70" points="46 11 46 7 42 7 42 11 41 11 41 19 47 19 47 11 46 11" class="colore9ff70 svgShape"></polygon><polygon fill="#7ccdf4" points="34 11 34 7 30 7 30 11 29 11 29 19 35 19 35 11 34 11" class="color7ccdf4 svgShape"></polygon><polygon fill="#7ccdf4" points="56 11 56 7 52 7 52 11 51 11 51 19 57 19 57 11 56 11" class="color7ccdf4 svgShape"></polygon><rect width="58" height="6" x="3" y="35" fill="#2d3142" class="color2d3142 svgShape"></rect><rect width="52" height="20" x="6" y="41" fill="#ffbf66" class="color979dac svgShape"></rect><rect width="6" height="4" x="10" y="47" fill="#2d3142" rx="2" class="color2d3142 svgShape"></rect><rect width="6" height="4" x="29" y="47" fill="#2d3142" rx="2" class="color2d3142 svgShape"></rect><rect width="6" height="4" x="48" y="47" fill="#2d3142" rx="2" class="color2d3142 svgShape"></rect><path fill="#7ccdf4" d="M19 23h6a0 0 0 0 1 0 0v3a3 3 0 0 1-3 3h0a3 3 0 0 1-3-3V23a0 0 0 0 1 0 0zM39 23h6a0 0 0 0 1 0 0v3a3 3 0 0 1-3 3h0a3 3 0 0 1-3-3V23A0 0 0 0 1 39 23z" class="color7ccdf4 svgShape"></path><path d="M61 2H3A1 1 0 0 0 2 3V19a1 1 0 0 0 1 1H61a1 1 0 0 0 1-1V3A1 1 0 0 0 61 2zM12 18H8V12a1 1 0 0 0 1-1V8h2v3a1 1 0 0 0 1 1zm10 0H18V12a1 1 0 0 0 1-1V8h2v3a1 1 0 0 0 1 1zm12 0H30V12a1 1 0 0 0 1-1V8h2v3a1 1 0 0 0 1 1zm12 0H42V12a1 1 0 0 0 1-1V8h2v3a1 1 0 0 0 1 1zm10 0H52V12a1 1 0 0 0 1-1V8h2v3a1 1 0 0 0 1 1zm4 0H58V11a1 1 0 0 0-1-1V7a1 1 0 0 0-1-1H52a1 1 0 0 0-1 1v3a1 1 0 0 0-1 1v7H48V11a1 1 0 0 0-1-1V7a1 1 0 0 0-1-1H42a1 1 0 0 0-1 1v3a1 1 0 0 0-1 1v7H36V11a1 1 0 0 0-1-1V7a1 1 0 0 0-1-1H30a1 1 0 0 0-1 1v3a1 1 0 0 0-1 1v7H24V11a1 1 0 0 0-1-1V7a1 1 0 0 0-1-1H18a1 1 0 0 0-1 1v3a1 1 0 0 0-1 1v7H14V11a1 1 0 0 0-1-1V7a1 1 0 0 0-1-1H8A1 1 0 0 0 7 7v3a1 1 0 0 0-1 1v7H4V4H60zM61 34H43V29.858A4 4 0 0 0 46 26V23a1 1 0 0 0-1-1H39a1 1 0 0 0-1 1v3a4 4 0 0 0 3 3.858V34H23V29.858A4 4 0 0 0 26 26V23a1 1 0 0 0-1-1H19a1 1 0 0 0-1 1v3a4 4 0 0 0 3 3.858V34H3a1 1 0 0 0-1 1v6a1 1 0 0 0 1 1H5V61a1 1 0 0 0 1 1H58a1 1 0 0 0 1-1V42h2a1 1 0 0 0 1-1V35A1 1 0 0 0 61 34zM40 26V24h4v2a2 2 0 0 1-4 0zM20 26V24h4v2a2 2 0 0 1-4 0zM57 60H7V42H57zm3-20H4V36H60z" fill="#ffbf66" class="color000 svgShape"></path><path d="M12 52v4H10v2h6V56H14V52a3 3 0 0 0 0-6H12a3 3 0 0 0 0 6zm0-4h2a1 1 0 0 1 0 2H12a1 1 0 0 1 0-2zM31 52v4H29v2h6V56H33V52a3 3 0 0 0 0-6H31a3 3 0 0 0 0 6zm0-4h2a1 1 0 0 1 0 2H31a1 1 0 0 1 0-2zM50 52v4H48v2h6V56H52V52a3 3 0 0 0 0-6H50a3 3 0 0 0 0 6zm0-4h2a1 1 0 0 1 0 2H50a1 1 0 0 1 0-2z" fill="#ffbf66" class="color000 svgShape"></path></svg></g></svg>