<svg id="SvgjsSvg1042" width="288" height="288" xmlns="http://www.w3.org/2000/svg" version="1.1" xmlns:xlink="http://www.w3.org/1999/xlink" xmlns:svgjs="http://svgjs.com/svgjs"><defs id="SvgjsDefs1043"></defs><g id="SvgjsG1044" transform="matrix(1,0,0,1,0,0)"><svg xmlns="http://www.w3.org/2000/svg" data-name="Layer 1" viewBox="0 0 24 24" width="288" height="288"><path d="M19,11V10a1,1,0,0,0-1-1H6a1,1,0,0,0-1,1V11a1,1,0,0,0,1,1H10.5V23.5a.5.5,0,0,0,.5.5h2a.5.5,0,0,0,.5-.5V12H18A1,1,0,0,0,19,11ZM12.5,23h-1V12h1ZM18,11H11l-.09,0H6l0-1,12,0Zm5.5-6A2.5,2.5,0,0,0,21,7.5V14H16.5a1.5,1.5,0,0,0-.5,2.91V23.5a.5.5,0,0,0,.5.5h2a.5.5,0,0,0,.5-.5V17h2v6.5a.5.5,0,0,0,.5.5h2a.5.5,0,0,0,.5-.5V5.5A.5.5,0,0,0,23.5,5ZM18,23H17V17h1Zm5,0H22V17h1Zm0-7H16.5a.5.5,0,0,1,0-1H23Zm0-2H22V7.5a1.5,1.5,0,0,1,1-1.41ZM7.5,14H3V7.5A2.5,2.5,0,0,0,.5,5a.5.5,0,0,0-.5.5v18a.5.5,0,0,0,.5.5h2a.5.5,0,0,0,.5-.5V17H5v6.5a.5.5,0,0,0,.5.5h2a.5.5,0,0,0,.5-.5V16.91A1.5,1.5,0,0,0,7.5,14ZM1,6.09A1.5,1.5,0,0,1,2,7.5V14H1ZM2,23H1V17H2Zm5,0H6V17H7Zm.5-7H1V15H7.5a.5.5,0,0,1,0,1Z" fill="#ffbf66" class="color000 svgShape"></path></svg></g></svg>