<svg id="SvgjsSvg1061" width="288" height="288" xmlns="http://www.w3.org/2000/svg" version="1.1" xmlns:xlink="http://www.w3.org/1999/xlink" xmlns:svgjs="http://svgjs.com/svgjs"><defs id="SvgjsDefs1062"></defs><g id="SvgjsG1063" transform="matrix(1,0,0,1,0,0)"><svg xmlns="http://www.w3.org/2000/svg" width="288" height="288" viewBox="0 0 25 25"><path d="M 12.5 0 A 12.5 12.5 0 0 0 0 12.5 A 12.5 12.5 0 0 0 12.5 25 A 12.5 12.5 0 0 0 25 12.5 A 12.5 12.5 0 0 0 12.5 0 z M 12.998047 6 C 14.206769 6 15.415493 6.3124 16.498047 6.9375 L 15.998047 7.8027344 C 14.140927 6.7304344 11.855185 6.7303344 9.9980469 7.8027344 C 7.1231538 9.4626344 6.1428926 13.1251 7.8027344 16 C 9.4625284 18.8749 13.12317 19.855112 15.998047 18.195312 C 18.719551 16.624012 19.661956 13.275822 18.355469 10.482422 L 16.921875 11.310547 L 16.421875 10.445312 L 18.810547 9.0664062 L 19.060547 9.5 C 20.990558 12.8429 19.84095 17.1324 16.498047 19.0625 C 13.15513 20.9925 8.8655625 19.8429 6.9355469 16.5 C 5.005479 13.1571 6.1551456 8.8676 9.4980469 6.9375 C 10.580631 6.3124 11.789325 6 12.998047 6 z M 12.998047 10 C 14.648979 10 15.998047 11.349 15.998047 13 C 15.998047 14.6509 14.648979 16 12.998047 16 C 11.347115 16 9.9980469 14.6509 9.9980469 13 C 9.9980469 11.349 11.347115 10 12.998047 10 z M 12.998047 11 C 11.887555 11 10.998047 11.8895 10.998047 13 C 10.998047 14.1105 11.887555 15 12.998047 15 C 14.108539 15 14.998047 14.1105 14.998047 13 C 14.998047 11.8895 14.108539 11 12.998047 11 z " fill="#ffbf66" class="color000 svgShape"></path></svg></g></svg>