<svg id="SvgjsSvg1001" width="288" height="288" xmlns="http://www.w3.org/2000/svg" version="1.1" xmlns:xlink="http://www.w3.org/1999/xlink" xmlns:svgjs="http://svgjs.com/svgjs"><defs id="SvgjsDefs1002"></defs><g id="SvgjsG1008" transform="matrix(1,0,0,1,0,0)"><svg xmlns="http://www.w3.org/2000/svg" viewBox="0 0 16 16" width="288" height="288"><path d="M3,2.71436c0,-1.40765 -0.527588,-2.00775 -1.22137,-2.71436c0.0213623,1.34119 -1.77863,2.40009 -1.77863,3.58588c0,1.51117 0.964722,1.94012 1.77863,2.41412c0.0491943,-1.32709 1.22137,-1.87805 1.22137,-3.28564Z" transform="translate(13 3)" fill="#ffbf66" class="color000 svgShape"></path><path d="M1.18524,3.99921c0.0327759,-0.884521 0.813965,-1.25177 0.813965,-2.19c0,-0.938232 -0.351624,-1.33826 -0.813965,-1.8092c0.0142822,0.893921 -1.18524,1.59973 -1.18524,2.39008c0,1.00726 0.642883,1.29315 1.18524,1.60913Z" transform="translate(11 2)" fill="#ffbf66" class="color000 svgShape"></path><path d="M0,0h13v4h-13Z" transform="translate(0 10)" fill="#ffbf66" class="color000 svgShape"></path><path d="M0,0h2v4h-2Z" transform="translate(14 10)" fill="#ffbf66" class="color000 svgShape"></path></svg></g></svg>