<svg id="SvgjsSvg1019" width="288" height="288" xmlns="http://www.w3.org/2000/svg" version="1.1" xmlns:xlink="http://www.w3.org/1999/xlink" xmlns:svgjs="http://svgjs.com/svgjs"><defs id="SvgjsDefs1020"></defs><g id="SvgjsG1021" transform="matrix(1,0,0,1,0,0)"><svg xmlns="http://www.w3.org/2000/svg" data-name="Layer 1" viewBox="0 0 32 32" width="288" height="288"><circle cx="16" cy="26" r="3" fill="#ffbf66" class="color000 svgShape"></circle><path d="M30.77,8.62a1,1,0,0,0-.25-.22,23.91,23.91,0,0,0-29,0,1,1,0,0,0-.26.2,1,1,0,0,0-.06,1.28l9.67,12.6a1,1,0,0,0,.74.39h.05a1,1,0,0,0,.72-.31,5,5,0,0,1,7.22,0,1,1,0,0,0,1.52-.08l9.67-12.6A1,1,0,0,0,30.77,8.62Z" fill="#ffbf66" class="color000 svgShape"></path></svg></g></svg>